<?xml version="1.0" encoding="UTF-8" standalone="no"?>
<!-- Created with Inkscape (http://www.inkscape.org/) -->

<svg
   xmlns:dc="http://purl.org/dc/elements/1.1/"
   xmlns:cc="http://creativecommons.org/ns#"
   xmlns:rdf="http://www.w3.org/1999/02/22-rdf-syntax-ns#"
   xmlns:svg="http://www.w3.org/2000/svg"
   xmlns="http://www.w3.org/2000/svg"
   xmlns:xlink="http://www.w3.org/1999/xlink"
   xmlns:sodipodi="http://sodipodi.sourceforge.net/DTD/sodipodi-0.dtd"
   xmlns:inkscape="http://www.inkscape.org/namespaces/inkscape"
   width="100"
   height="100"
   viewBox="0 0 26.458333 26.458334"
   version="1.1"
   id="svg8"
   inkscape:version="0.92.0 r15299"
   sodipodi:docname="avatar-red.svg"
   inkscape:export-filename="C:\Users\Sven\Documents\SvenFrankson\space-scout\datas\textures\hud\avatars\avatar-red.png"
   inkscape:export-xdpi="96"
   inkscape:export-ydpi="96">
  <defs
     id="defs2">
    <linearGradient
       id="linearGradient4690"
       inkscape:collect="always">
      <stop
         id="stop4498"
         offset="0"
         style="stop-color:#0a0503;stop-opacity:0.49803922" />
      <stop
         style="stop-color:#090200;stop-opacity:0.49803922"
         offset="0.88909584"
         id="stop4510" />
      <stop
         id="stop4500"
         offset="1"
         style="stop-color:#050201;stop-opacity:0" />
    </linearGradient>
    <radialGradient
       inkscape:collect="always"
       xlink:href="#linearGradient4690"
       id="radialGradient4692"
       cx="33.866665"
       cy="263.13333"
       fx="33.866665"
       fy="263.13333"
       r="29.482141"
       gradientUnits="userSpaceOnUse"
       gradientTransform="matrix(0.36747647,-0.00236317,0.00237073,0.36865046,0.16014664,186.84697)" />
  </defs>
  <sodipodi:namedview
     id="base"
     pagecolor="#ffffff"
     bordercolor="#666666"
     borderopacity="1.0"
     inkscape:pageopacity="0.0"
     inkscape:pageshadow="2"
     inkscape:zoom="5.6"
     inkscape:cx="15.170705"
     inkscape:cy="50.323746"
     inkscape:document-units="mm"
     inkscape:current-layer="layer1"
     showgrid="false"
     units="px"
     inkscape:pagecheckerboard="true"
     inkscape:window-width="1920"
     inkscape:window-height="1017"
     inkscape:window-x="-8"
     inkscape:window-y="-8"
     inkscape:window-maximized="1" />
  <metadata
     id="metadata5">
    <rdf:RDF>
      <cc:Work
         rdf:about="">
        <dc:format>image/svg+xml</dc:format>
        <dc:type
           rdf:resource="http://purl.org/dc/dcmitype/StillImage" />
        <dc:title></dc:title>
      </cc:Work>
    </rdf:RDF>
  </metadata>
  <g
     inkscape:label="Calque 1"
     inkscape:groupmode="layer"
     id="layer1"
     transform="translate(0,-270.54165)">
    <ellipse
       style="fill:url(#radialGradient4692);fill-opacity:1;stroke:none;stroke-width:0.52916667;stroke-linecap:round;stroke-linejoin:round;stroke-miterlimit:4;stroke-dasharray:none;stroke-opacity:1"
       id="path4648"
       cx="13.229166"
       cy="283.77118"
       rx="10.868831"
       ry="10.833993" />
    <path
       style="fill:#200e09;fill-opacity:1;stroke:#fff9f9;stroke-width:0.52916667;stroke-linecap:round;stroke-linejoin:round;stroke-miterlimit:4;stroke-dasharray:none;stroke-opacity:1;paint-order:stroke fill markers"
       d="m 13.229167,272.0941 a 11.677026,11.677026 0 0 0 -1.165156,0.0607 l 0.211847,0.79004 a 10.875798,10.875798 0 0 1 0.953309,-0.0495 10.875798,10.875798 0 0 1 8.802485,4.5065 l 0.580862,-0.33529 1.11467,1.93081 -0.579339,0.33453 a 10.875798,10.875798 0 0 1 0.898443,3.32458 h 0.661257 v 2.22934 h -0.673069 a 10.875798,10.875798 0 0 1 -2.383082,5.7311 l 0.482561,0.48255 -1.576465,1.57647 -0.483895,-0.4839 a 10.875798,10.875798 0 0 1 -2.258106,1.42692 l 0.208035,0.77671 a 11.677026,11.677026 0 0 0 2.014065,-1.15582 l 0.544477,0.54448 2.660272,-2.66028 -0.541427,-0.54143 a 11.677026,11.677026 0 0 0 2.03883,-4.93038 h 0.769087 v -3.76218 h -0.759943 a 11.677026,11.677026 0 0 0 -0.602961,-2.24953 l 0.6584,-0.38007 -1.88128,-3.25828 -0.660306,0.38121 a 11.677026,11.677026 0 0 0 -9.033571,-4.28931 z m -4.7943586,1.05255 a 11.677026,11.677026 0 0 0 -2.0140648,1.15583 L 5.876268,273.758 l -2.6602726,2.66027 0.5414276,0.54142 a 11.677026,11.677026 0 0 0 -2.0388311,4.93039 H 0.94950576 v 3.76218 H 1.7094475 a 11.677026,11.677026 0 0 0 0.602962,2.24953 l -0.6584002,0.38006 1.8812799,3.25829 0.6603053,-0.38121 a 11.677026,11.677026 0 0 0 9.0335725,4.28932 11.677026,11.677026 0 0 0 1.165155,-0.0607 l -0.211846,-0.79004 a 10.875798,10.875798 0 0 1 -0.953309,0.0495 10.875798,10.875798 0 0 1 -8.8024847,-4.5065 l -0.580863,0.3353 -1.1146702,-1.93081 0.579339,-0.33454 A 10.875798,10.875798 0 0 1 2.4120459,284.88584 H 1.750788 v -2.22934 h 0.6730696 a 10.875798,10.875798 0 0 1 2.3830813,-5.73109 l -0.4825601,-0.48257 1.5764648,-1.57647 0.4838937,0.4839 a 10.875798,10.875798 0 0 1 2.2581074,-1.42691 z"
       id="path4485"
       inkscape:connector-curvature="0" />
    <path
       sodipodi:type="star"
       style="fill:#ce7054;fill-opacity:1;stroke:#fff9f9;stroke-width:1.93862781;stroke-linecap:round;stroke-linejoin:round;stroke-miterlimit:4;stroke-dasharray:none;stroke-opacity:1;paint-order:stroke fill markers"
       id="path4631"
       sodipodi:sides="3"
       sodipodi:cx="1.3229167"
       sodipodi:cy="295.2991"
       sodipodi:r1="10.197042"
       sodipodi:r2="2.7135961"
       sodipodi:arg1="-1.5707963"
       sodipodi:arg2="-0.52359878"
       inkscape:flatsided="true"
       inkscape:rounded="0"
       inkscape:randomized="0"
       d="m 1.322917,285.10206 8.830897,15.29556 -17.6617952,0 z"
       inkscape:transform-center-y="-0.34639604"
       transform="matrix(0.26363841,-0.07065248,0.07064171,0.26367864,-18.516865,216.5371)"
       inkscape:transform-center-x="-0.36387717" />
    <path
       sodipodi:type="star"
       style="fill:#ce7054;fill-opacity:1;stroke:#fff9f9;stroke-width:1.93862781;stroke-linecap:round;stroke-linejoin:round;stroke-miterlimit:4;stroke-dasharray:none;stroke-opacity:1;paint-order:stroke fill markers"
       id="path4631-4"
       sodipodi:sides="3"
       sodipodi:cx="1.3229167"
       sodipodi:cy="295.2991"
       sodipodi:r1="10.197042"
       sodipodi:r2="2.7135961"
       sodipodi:arg1="-1.5707963"
       sodipodi:arg2="-0.52359878"
       inkscape:flatsided="true"
       inkscape:rounded="0"
       inkscape:randomized="0"
       d="m 1.322917,285.10206 8.830897,15.29556 -17.6617952,0 z"
       inkscape:transform-center-y="0.34639104"
       transform="matrix(-0.26363841,0.07065248,-0.07064171,-0.26367864,44.975192,351.00453)"
       inkscape:transform-center-x="0.3638804" />
  </g>
</svg>
