<?xml version="1.0" encoding="UTF-8" standalone="no"?>
<!-- Created with Inkscape (http://www.inkscape.org/) -->

<svg
   xmlns:dc="http://purl.org/dc/elements/1.1/"
   xmlns:cc="http://creativecommons.org/ns#"
   xmlns:rdf="http://www.w3.org/1999/02/22-rdf-syntax-ns#"
   xmlns:svg="http://www.w3.org/2000/svg"
   xmlns="http://www.w3.org/2000/svg"
   xmlns:sodipodi="http://sodipodi.sourceforge.net/DTD/sodipodi-0.dtd"
   xmlns:inkscape="http://www.inkscape.org/namespaces/inkscape"
   width="256"
   height="256"
   viewBox="0 0 67.733332 67.733335"
   version="1.1"
   id="svg8"
   inkscape:version="0.92.0 r15299"
   sodipodi:docname="bang-red.svg">
  <defs
     id="defs2" />
  <sodipodi:namedview
     id="base"
     pagecolor="#ffffff"
     bordercolor="#666666"
     borderopacity="1.0"
     inkscape:pageopacity="0.0"
     inkscape:pageshadow="2"
     inkscape:zoom="2.8"
     inkscape:cx="139.87824"
     inkscape:cy="149.05515"
     inkscape:document-units="mm"
     inkscape:current-layer="layer1"
     showgrid="false"
     units="px"
     inkscape:pagecheckerboard="true"
     inkscape:window-width="1920"
     inkscape:window-height="1017"
     inkscape:window-x="-8"
     inkscape:window-y="-8"
     inkscape:window-maximized="1" />
  <metadata
     id="metadata5">
    <rdf:RDF>
      <cc:Work
         rdf:about="">
        <dc:format>image/svg+xml</dc:format>
        <dc:type
           rdf:resource="http://purl.org/dc/dcmitype/StillImage" />
        <dc:title></dc:title>
      </cc:Work>
    </rdf:RDF>
  </metadata>
  <g
     inkscape:label="Calque 1"
     inkscape:groupmode="layer"
     id="layer1"
     transform="translate(0,-229.26665)">
    <path
       style="fill:#ff0f0f;fill-opacity:1;stroke:#f6f6f6;stroke-width:1.32291667;stroke-linecap:round;stroke-linejoin:round;stroke-miterlimit:4;stroke-dasharray:none;stroke-opacity:1;paint-order:stroke markers fill"
       inkscape:transform-center-y="-2.8908337"
       d="m 33.866671,232.86028 c 0,0 0.788723,16.68001 6.73639,21.00121 5.947668,4.32123 22.054995,-0.0831 22.054995,-0.0831 0,0 -15.619873,5.90453 -17.891679,12.89642 -2.271805,6.99189 6.894347,20.94988 6.894347,20.94988 0,0 -10.442342,-13.03077 -17.794056,-13.03077 -7.351713,0 -17.794055,13.03077 -17.794055,13.03077 0,0 9.166154,-13.95797 6.894349,-20.94988 -2.271806,-6.99189 -17.8916791,-12.89642 -17.8916791,-12.89642 0,0 16.1073301,4.4043 22.0549971,0.0831 5.947667,-4.3212 6.736391,-21.00121 6.736391,-21.00121 z"
       id="path4487"
       inkscape:connector-curvature="0"
       sodipodi:nodetypes="cscscscscsc" />
    <path
       style="fill:#ffa9a9;fill-opacity:1;stroke:none;stroke-width:1.61713333;stroke-linecap:round;stroke-linejoin:round;stroke-miterlimit:4;stroke-dasharray:none;stroke-opacity:1;paint-order:stroke markers fill"
       inkscape:transform-center-y="-1.7668137"
       d="m 33.86667,244.63114 c 0,0 0.482049,10.19443 4.117126,12.83545 3.635076,2.64104 13.479501,-0.0508 13.479501,-0.0508 0,0 -9.546504,3.60872 -10.93498,7.882 -1.388474,4.27328 4.213666,12.80408 4.213666,12.80408 0,0 -6.382118,-7.96411 -10.875315,-7.96411 -4.493197,0 -10.875314,7.96411 -10.875314,7.96411 0,0 5.602141,-8.53079 4.213667,-12.80408 -1.388476,-4.27328 -10.934979,-7.882 -10.934979,-7.882 0,0 9.844426,2.69181 13.479502,0.0508 3.635076,-2.64102 4.117126,-12.83545 4.117126,-12.83545 z"
       id="path4487-0"
       inkscape:connector-curvature="0"
       sodipodi:nodetypes="cscscscscsc" />
  </g>
</svg>
