<?xml version="1.0" encoding="UTF-8" standalone="no"?>
<!-- Created with Inkscape (http://www.inkscape.org/) -->

<svg
   xmlns:dc="http://purl.org/dc/elements/1.1/"
   xmlns:cc="http://creativecommons.org/ns#"
   xmlns:rdf="http://www.w3.org/1999/02/22-rdf-syntax-ns#"
   xmlns:svg="http://www.w3.org/2000/svg"
   xmlns="http://www.w3.org/2000/svg"
   xmlns:sodipodi="http://sodipodi.sourceforge.net/DTD/sodipodi-0.dtd"
   xmlns:inkscape="http://www.inkscape.org/namespaces/inkscape"
   width="512"
   height="512"
   viewBox="0 0 135.46666 135.46667"
   version="1.1"
   id="svg8"
   sodipodi:docname="panel-right.svg"
   inkscape:export-filename="C:\Users\Sven\Documents\SvenFrankson\space-scout\datas\panel-right.png"
   inkscape:export-xdpi="96"
   inkscape:export-ydpi="96"
   inkscape:version="0.92.0 r15299">
  <defs
     id="defs2" />
  <sodipodi:namedview
     id="base"
     pagecolor="#ffffff"
     bordercolor="#666666"
     borderopacity="1.0"
     inkscape:pageopacity="0.0"
     inkscape:pageshadow="2"
     inkscape:zoom="1.3488292"
     inkscape:cx="327.97094"
     inkscape:cy="264.85221"
     inkscape:document-units="mm"
     inkscape:current-layer="layer1"
     showgrid="false"
     units="px"
     inkscape:pagecheckerboard="true"
     inkscape:window-width="1920"
     inkscape:window-height="1017"
     inkscape:window-x="-8"
     inkscape:window-y="161"
     inkscape:window-maximized="1" />
  <metadata
     id="metadata5">
    <rdf:RDF>
      <cc:Work
         rdf:about="">
        <dc:format>image/svg+xml</dc:format>
        <dc:type
           rdf:resource="http://purl.org/dc/dcmitype/StillImage" />
        <dc:title></dc:title>
      </cc:Work>
    </rdf:RDF>
  </metadata>
  <g
     inkscape:label="Calque 1"
     inkscape:groupmode="layer"
     id="layer1"
     transform="translate(0,-161.53332)">
    <path
       style="fill:#000000;fill-opacity:0.50196078;stroke:none;stroke-width:0.52916664;stroke-linejoin:round;stroke-miterlimit:4;stroke-dasharray:none;stroke-opacity:1"
       d="m 80.320168,167.5681 c -39.440175,-8e-5 -71.4127779,31.97253 -71.4126979,71.4127 0.0239,23.02599 11.1489499,44.62771 29.8803439,58.01919 H 135.46667 V 193.68796 C 121.91691,177.17083 101.68394,167.5876 80.320168,167.5681 Z"
       id="path5211"
       inkscape:connector-curvature="0" />
    <path
       style="fill:#3a0000;fill-opacity:0;stroke:#fefcfc;stroke-width:0.53049892;stroke-linejoin:round;stroke-miterlimit:4;stroke-dasharray:none;stroke-opacity:1"
       d="m 80.054916,163.72477 c 20.972684,0.0351 40.972364,8.85113 55.146504,24.30911 v 5.38881 c -13.54976,-16.51712 -33.78273,-26.10035 -55.146504,-26.11985 -39.440175,-8e-5 -71.412774,31.97253 -71.4126946,71.4127 0.023892,23.02599 11.1489536,44.62772 29.8803476,58.0192 H 32.617503 C 15.196482,282.50603 5.0824458,261.20882 5.0641446,238.71554 5.064097,197.29926 38.638634,163.72471 80.054916,163.72477 Z m 33.909564,0.0749 c 7.76536,3.55665 14.93005,8.29995 21.23694,14.05961 v 5.39812 c -6.37822,-6.38742 -13.81153,-11.62547 -21.9723,-15.4833 z m -68.979775,0.53278 -0.873332,4.72323 c -1.064233,0.5492 -2.112991,1.12333 -3.14761,1.71876 l -1.092441,-3.79874 c 1.669005,-0.93752 3.373742,-1.82027 5.113383,-2.64325 z m -8.361762,4.56613 1.105358,3.84318 c -6.332194,4.06385 -12.033211,9.00915 -16.93695,14.67352 l -2.754353,-2.651 c 5.358458,-6.1683 11.619349,-11.5206 18.585945,-15.8657 z m -20.925337,18.68465 2.759003,2.65565 c -1.7165,2.18085 -3.319383,4.4571 -4.801772,6.81922 l -3.155365,-2.13217 c 1.602042,-2.54635 3.337224,-4.9975 5.198134,-7.3427 z m -7.0786389,10.48101 3.1656999,2.13941 c -0.20202,0.35804 -0.404408,0.71585 -0.600998,1.07745 l -4.5614779,0.51521 c 0.6347989,-1.26352 1.3005753,-2.50788 1.996776,-3.73207 z m 32.4677849,13.3966 c 0.364085,0 0.657326,0.29324 0.657326,0.65733 v 2.80396 c 0,0.36408 -0.293241,0.65732 -0.657326,0.65732 H 21.06162 c -0.364085,0 -0.657326,-0.29324 -0.657326,-0.65732 v -2.80396 c 0,-0.36409 0.293241,-0.65733 0.657326,-0.65733 z m -2.844271,7.0497 c 0.364085,0 0.657326,0.29272 0.657326,0.65681 v 2.80448 c 0,0.36408 -0.293241,0.65681 -0.657326,0.65681 H 18.217349 c -0.364085,0 -0.657326,-0.29273 -0.657326,-0.65681 v -2.80448 c 0,-0.36409 0.293241,-0.65681 0.657326,-0.65681 z m -2.255676,7.04918 c 0.364085,0 0.656807,0.29324 0.656807,0.65733 v 2.80396 c 0,0.36408 -0.292722,0.65732 -0.656807,0.65732 H 15.961154 c -0.364082,0 -0.656807,-0.29324 -0.656807,-0.65732 v -2.80396 c 0,-0.36409 0.292725,-0.65733 0.656807,-0.65733 z m -0.784963,7.04918 c 0.364082,0 0.657323,0.29324 0.657323,0.65733 v 2.80396 c 0,0.36409 -0.293241,0.65733 -0.657323,0.65733 H 15.176707 c -0.364085,0 -0.657325,-0.29324 -0.657325,-0.65733 v -2.80396 c 0,-0.36409 0.29324,-0.65733 0.657325,-0.65733 z m 0,7.0497 c 0.364082,0 0.657323,0.29273 0.657323,0.65681 v 2.80396 c 0,0.36409 -0.293241,0.65733 -0.657323,0.65733 H 15.176707 c -0.364085,0 -0.657325,-0.29324 -0.657325,-0.65733 v -2.80396 c 0,-0.36408 0.29324,-0.65681 0.657325,-0.65681 z m 0.784963,7.04918 c 0.364085,0 0.656807,0.29324 0.656807,0.65733 v 2.80396 c 0,0.36409 -0.292722,0.65681 -0.656807,0.65681 H 15.961154 c -0.364082,0 -0.656807,-0.29272 -0.656807,-0.65681 v -2.80396 c 0,-0.36409 0.292725,-0.65733 0.656807,-0.65733 z m 2.255676,7.04919 c 0.364085,0 0.657326,0.29324 0.657326,0.65732 v 2.80396 c 0,0.36409 -0.293241,0.65733 -0.657326,0.65733 H 18.217349 c -0.364085,0 -0.657326,-0.29324 -0.657326,-0.65733 v -2.80396 c 0,-0.36408 0.293241,-0.65732 0.657326,-0.65732 z m 2.844271,7.04918 c 0.364085,0 0.657326,0.29324 0.657326,0.65732 v 2.80397 c 0,0.36408 -0.293241,0.65732 -0.657326,0.65732 H 21.06162 c -0.364085,0 -0.657326,-0.29324 -0.657326,-0.65732 v -2.80397 c 0,-0.36408 0.293241,-0.65732 0.657326,-0.65732 z m -32.891015,8.97723 c 3.31569,7.6834 7.84003,14.78645 13.401249,21.03954 l -0.891935,4.824 C 13.637743,288.28422 8.0008767,279.67173 4.0817758,270.2485 Z"
       id="path5078"
       inkscape:connector-curvature="0"
       sodipodi:nodetypes="ccccccccccccccccccccccccccccccccccssssssssssssssssssssssssssssssssssssssssssssssssssssssssssssssssssssssssccccc" />
  </g>
</svg>
