<?xml version="1.0" encoding="UTF-8" standalone="no"?>
<!-- Created with Inkscape (http://www.inkscape.org/) -->

<svg
   xmlns:dc="http://purl.org/dc/elements/1.1/"
   xmlns:cc="http://creativecommons.org/ns#"
   xmlns:rdf="http://www.w3.org/1999/02/22-rdf-syntax-ns#"
   xmlns:svg="http://www.w3.org/2000/svg"
   xmlns="http://www.w3.org/2000/svg"
   xmlns:sodipodi="http://sodipodi.sourceforge.net/DTD/sodipodi-0.dtd"
   xmlns:inkscape="http://www.inkscape.org/namespaces/inkscape"
   width="512"
   height="512"
   viewBox="0 0 135.46666 135.46667"
   version="1.1"
   id="svg8"
   sodipodi:docname="speed-display.svg"
   inkscape:export-filename="C:\Users\Sven\Documents\SvenFrankson\space-scout\datas\speed-display.png"
   inkscape:export-xdpi="96"
   inkscape:export-ydpi="96"
   inkscape:version="0.92.0 r15299">
  <defs
     id="defs2" />
  <sodipodi:namedview
     id="base"
     pagecolor="#ffffff"
     bordercolor="#666666"
     borderopacity="1.0"
     inkscape:pageopacity="0.0"
     inkscape:pageshadow="2"
     inkscape:zoom="1.3488292"
     inkscape:cx="327.97094"
     inkscape:cy="264.85221"
     inkscape:document-units="mm"
     inkscape:current-layer="layer1"
     showgrid="false"
     units="px"
     inkscape:pagecheckerboard="true"
     inkscape:window-width="1920"
     inkscape:window-height="1017"
     inkscape:window-x="-8"
     inkscape:window-y="161"
     inkscape:window-maximized="1" />
  <metadata
     id="metadata5">
    <rdf:RDF>
      <cc:Work
         rdf:about="">
        <dc:format>image/svg+xml</dc:format>
        <dc:type
           rdf:resource="http://purl.org/dc/dcmitype/StillImage" />
        <dc:title></dc:title>
      </cc:Work>
    </rdf:RDF>
  </metadata>
  <g
     inkscape:label="Calque 1"
     inkscape:groupmode="layer"
     id="layer1"
     transform="translate(0,-161.53332)">
    <path
       style="fill:#ffffff;fill-opacity:1;stroke:none;stroke-width:0.53049892;stroke-linejoin:round;stroke-miterlimit:4;stroke-dasharray:none;stroke-opacity:1"
       d="m 41.086752,211.46084 c 0.364085,0 0.657326,0.29324 0.657326,0.65733 v 2.80396 c 0,0.36408 -0.293241,0.65732 -0.657326,0.65732 H 21.06162 c -0.364085,0 -0.657326,-0.29324 -0.657326,-0.65732 v -2.80396 c 0,-0.36409 0.293241,-0.65733 0.657326,-0.65733 z m -2.844271,7.0497 c 0.364085,0 0.657326,0.29272 0.657326,0.65681 v 2.80448 c 0,0.36408 -0.293241,0.65681 -0.657326,0.65681 H 18.217349 c -0.364085,0 -0.657326,-0.29273 -0.657326,-0.65681 v -2.80448 c 0,-0.36409 0.293241,-0.65681 0.657326,-0.65681 z m -2.255676,7.04918 c 0.364085,0 0.656807,0.29324 0.656807,0.65733 v 2.80396 c 0,0.36408 -0.292722,0.65732 -0.656807,0.65732 H 15.961154 c -0.364082,0 -0.656807,-0.29324 -0.656807,-0.65732 v -2.80396 c 0,-0.36409 0.292725,-0.65733 0.656807,-0.65733 z m -0.784963,7.04918 c 0.364082,0 0.657323,0.29324 0.657323,0.65733 v 2.80396 c 0,0.36409 -0.293241,0.65733 -0.657323,0.65733 H 15.176707 c -0.364085,0 -0.657325,-0.29324 -0.657325,-0.65733 v -2.80396 c 0,-0.36409 0.29324,-0.65733 0.657325,-0.65733 z m 0,7.0497 c 0.364082,0 0.657323,0.29273 0.657323,0.65681 v 2.80396 c 0,0.36409 -0.293241,0.65733 -0.657323,0.65733 H 15.176707 c -0.364085,0 -0.657325,-0.29324 -0.657325,-0.65733 v -2.80396 c 0,-0.36408 0.29324,-0.65681 0.657325,-0.65681 z m 0.784963,7.04918 c 0.364085,0 0.656807,0.29324 0.656807,0.65733 v 2.80396 c 0,0.36409 -0.292722,0.65681 -0.656807,0.65681 H 15.961154 c -0.364082,0 -0.656807,-0.29272 -0.656807,-0.65681 v -2.80396 c 0,-0.36409 0.292725,-0.65733 0.656807,-0.65733 z m 2.255676,7.04919 c 0.364085,0 0.657326,0.29324 0.657326,0.65732 v 2.80396 c 0,0.36409 -0.293241,0.65733 -0.657326,0.65733 H 18.217349 c -0.364085,0 -0.657326,-0.29324 -0.657326,-0.65733 v -2.80396 c 0,-0.36408 0.293241,-0.65732 0.657326,-0.65732 z m 2.844271,7.04918 c 0.364085,0 0.657326,0.29324 0.657326,0.65732 v 2.80397 c 0,0.36408 -0.293241,0.65732 -0.657326,0.65732 H 21.06162 c -0.364085,0 -0.657326,-0.29324 -0.657326,-0.65732 v -2.80397 c 0,-0.36408 0.293241,-0.65732 0.657326,-0.65732 z"
       id="path5078"
       inkscape:connector-curvature="0"
       sodipodi:nodetypes="ssssssssssssssssssssssssssssssssssssssssssssssssssssssssssssssssssssssss" />
  </g>
</svg>
