<?xml version="1.0" encoding="UTF-8" standalone="no"?>
<!-- Created with Inkscape (http://www.inkscape.org/) -->

<svg
   xmlns:dc="http://purl.org/dc/elements/1.1/"
   xmlns:cc="http://creativecommons.org/ns#"
   xmlns:rdf="http://www.w3.org/1999/02/22-rdf-syntax-ns#"
   xmlns:svg="http://www.w3.org/2000/svg"
   xmlns="http://www.w3.org/2000/svg"
   xmlns:sodipodi="http://sodipodi.sourceforge.net/DTD/sodipodi-0.dtd"
   xmlns:inkscape="http://www.inkscape.org/namespaces/inkscape"
   width="1024"
   height="1024"
   viewBox="0 0 270.93333 270.93334"
   version="1.1"
   id="svg8"
   inkscape:version="0.92.0 r15299"
   sodipodi:docname="target_2.svg"
   inkscape:export-filename="C:\Users\Sven\Documents\SvenFrankson\SpaceScoot\datas\target.png"
   inkscape:export-xdpi="96.000008"
   inkscape:export-ydpi="96.000008">
  <defs
     id="defs2" />
  <sodipodi:namedview
     id="base"
     pagecolor="#ffffff"
     bordercolor="#666666"
     borderopacity="1.0"
     inkscape:pageopacity="0.0"
     inkscape:pageshadow="2"
     inkscape:zoom="0.7"
     inkscape:cx="311.72432"
     inkscape:cy="569.06087"
     inkscape:document-units="mm"
     inkscape:current-layer="layer1"
     showgrid="false"
     units="px"
     inkscape:pagecheckerboard="true"
     inkscape:window-width="1920"
     inkscape:window-height="1017"
     inkscape:window-x="-8"
     inkscape:window-y="161"
     inkscape:window-maximized="1" />
  <metadata
     id="metadata5">
    <rdf:RDF>
      <cc:Work
         rdf:about="">
        <dc:format>image/svg+xml</dc:format>
        <dc:type
           rdf:resource="http://purl.org/dc/dcmitype/StillImage" />
        <dc:title />
      </cc:Work>
    </rdf:RDF>
  </metadata>
  <g
     inkscape:label="Calque 1"
     inkscape:groupmode="layer"
     id="layer1"
     transform="translate(0,-26.06665)">
    <path
       style="fill:#df3535;fill-opacity:0.50196078;stroke:#fbfdfa;stroke-width:0.61160231;stroke-linejoin:round;stroke-miterlimit:4;stroke-dasharray:none;stroke-opacity:1"
       d="m 135.42906,292.36676 a 131.49449,131.49449 0 0 0 131.4943,-131.4943 131.49449,131.49449 0 0 0 -38.99452,-93.376212 l -2.42931,2.42931 A 128.1006,128.1006 0 0 1 263.52977,160.87246 128.1006,128.1006 0 0 1 135.42906,288.97317 128.1006,128.1006 0 0 1 7.3283577,160.87246 128.1006,128.1006 0 0 1 45.046987,70.194798 l -2.38694,-2.38694 A 131.49449,131.49449 0 0 0 3.9347777,160.87246 131.49449,131.49449 0 0 0 135.42906,292.36676 Z"
       id="path5307"
       inkscape:connector-curvature="0" />
    <path
       style="fill:#df3535;fill-opacity:0.50196078;stroke:#fbfdfa;stroke-width:0.58178514;stroke-linejoin:round;stroke-miterlimit:4;stroke-dasharray:none;stroke-opacity:1"
       d="m 253.05651,203.05438 a 125.08379,125.08379 0 0 0 7.45639,-42.18192 125.08379,125.08379 0 0 0 -12.34395,-53.82358 h -3.49229 a 121.85536,121.85536 0 0 1 12.60801,53.82358 121.85536,121.85536 0 0 1 -7.69514,42.18192 z m -231.857162,0 a 121.85536,121.85536 0 0 1 -7.62589,-42.18192 121.85536,121.85536 0 0 1 12.696379,-53.82358 h -3.62045 a 125.08379,125.08379 0 0 0 -12.304159,53.82358 125.08379,125.08379 0 0 0 7.49153,42.18192 z"
       id="path5307-9"
       inkscape:connector-curvature="0" />
    <path
       inkscape:connector-curvature="0"
       style="fill:#df3535;fill-opacity:0.50196078;stroke:#fbfdfa;stroke-width:0.58178514;stroke-linejoin:round;stroke-miterlimit:4;stroke-dasharray:none;stroke-opacity:1"
       d="m 144.86487,286.37652 c 14.33241,-1.22727 28.34572,-4.91758 41.42361,-10.90863 16.89858,-7.85935 31.82737,-19.39549 43.69512,-33.76518 l -1.46363,-3.17079 c -11.73126,14.52422 -26.6431,26.15855 -43.58445,34.00494 -13.10045,5.99028 -27.15929,9.61027 -41.52367,10.69186 z"
       id="path5307-9-1"
       sodipodi:nodetypes="ccccccc" />
  </g>
</svg>
