<?xml version="1.0" encoding="UTF-8" standalone="no"?>
<!-- Created with Inkscape (http://www.inkscape.org/) -->

<svg
   xmlns:dc="http://purl.org/dc/elements/1.1/"
   xmlns:cc="http://creativecommons.org/ns#"
   xmlns:rdf="http://www.w3.org/1999/02/22-rdf-syntax-ns#"
   xmlns:svg="http://www.w3.org/2000/svg"
   xmlns="http://www.w3.org/2000/svg"
   xmlns:sodipodi="http://sodipodi.sourceforge.net/DTD/sodipodi-0.dtd"
   xmlns:inkscape="http://www.inkscape.org/namespaces/inkscape"
   width="1024"
   height="1024"
   viewBox="0 0 270.93333 270.93334"
   version="1.1"
   id="svg8"
   inkscape:version="0.92.0 r15299"
   sodipodi:docname="target.svg"
   inkscape:export-filename="C:\Users\Sven\Documents\SvenFrankson\space-scout\datas\target1.png"
   inkscape:export-xdpi="96.000008"
   inkscape:export-ydpi="96.000008">
  <defs
     id="defs2" />
  <sodipodi:namedview
     id="base"
     pagecolor="#ffffff"
     bordercolor="#666666"
     borderopacity="1.0"
     inkscape:pageopacity="0.0"
     inkscape:pageshadow="2"
     inkscape:zoom="0.7"
     inkscape:cx="318.48279"
     inkscape:cy="504.56247"
     inkscape:document-units="mm"
     inkscape:current-layer="layer1"
     showgrid="false"
     units="px"
     inkscape:pagecheckerboard="true"
     inkscape:window-width="1920"
     inkscape:window-height="1017"
     inkscape:window-x="-8"
     inkscape:window-y="161"
     inkscape:window-maximized="1" />
  <metadata
     id="metadata5">
    <rdf:RDF>
      <cc:Work
         rdf:about="">
        <dc:format>image/svg+xml</dc:format>
        <dc:type
           rdf:resource="http://purl.org/dc/dcmitype/StillImage" />
        <dc:title />
      </cc:Work>
    </rdf:RDF>
  </metadata>
  <g
     inkscape:label="Calque 1"
     inkscape:groupmode="layer"
     id="layer1"
     transform="translate(0,-26.06665)">
    <path
       style="fill:none;fill-opacity:0.50196081;stroke:#fafafa;stroke-width:2.00000003;stroke-linejoin:round;stroke-miterlimit:4;stroke-dasharray:none;stroke-opacity:1"
       d="M 512 8.4511719 A 503.54971 503.54971 0 0 0 8.4511719 512 A 503.54971 503.54971 0 0 0 110.94531 815.45508 L 120.00195 806.39844 A 490.7186 490.7186 0 0 1 21.28125 512 A 490.7186 490.7186 0 0 1 512 21.28125 A 490.7186 490.7186 0 0 1 1002.7188 512 A 490.7186 490.7186 0 0 1 903.91016 806.31055 L 913.18359 815.58398 A 503.54971 503.54971 0 0 0 1015.5488 512 A 503.54971 503.54971 0 0 0 512 8.4511719 z M 525.42188 36.013672 L 525.75195 50.482422 A 462.205 462.205 0 0 1 569.45898 53.814453 L 571.94922 39.917969 A 476.4618 476.4618 0 0 0 525.42188 36.013672 z M 476.35547 37.322266 A 476.4618 476.4618 0 0 0 430.0293 43.119141 L 433.09961 56.595703 A 462.205 462.205 0 0 1 476.69141 51.269531 L 476.35547 37.322266 z M 619.92969 48.519531 L 617.42188 62.480469 A 462.205 462.205 0 0 1 657.79492 73.798828 L 662.92969 60.703125 A 476.4618 476.4618 0 0 0 619.92969 48.519531 z M 382.75 53.869141 A 476.4618 476.4618 0 0 0 338.69922 68.681641 L 344.375 81.269531 A 462.205 462.205 0 0 1 385.84961 67.472656 L 382.75 53.869141 z M 709.86914 79.207031 L 704.63672 92.390625 A 462.205 462.205 0 0 1 742.45117 111.80664 L 750.10938 99.988281 A 476.4618 476.4618 0 0 0 709.86914 79.207031 z M 294.49023 88.59375 A 476.4618 476.4618 0 0 0 153.4375 199.13672 L 164.4707 207.81641 A 462.205 462.205 0 0 1 300.21875 101.30078 L 294.49023 88.59375 z M 790.80078 126.35352 L 783.10938 138.22461 A 462.205 462.205 0 0 1 817.55469 165.74805 L 827.42188 155.68555 A 476.4618 476.4618 0 0 0 790.80078 126.35352 z M 862.04688 189.62891 L 852.13672 199.73438 A 462.205 462.205 0 0 1 880.26172 233.36523 L 891.93164 225.46289 A 476.4618 476.4618 0 0 0 862.04688 189.62891 z M 123.45898 237.24609 A 476.4618 476.4618 0 0 0 36.398438 487.75586 L 51.007812 487.75586 A 462.205 462.205 0 0 1 134.43359 245.87891 L 123.45898 237.24609 z M 919.11914 265.60938 L 907.39844 273.54492 A 462.205 462.205 0 0 1 973.3457 487.75586 L 987.24805 487.75586 A 476.4618 476.4618 0 0 0 919.11914 265.60938 z M 36.751953 536.24414 A 476.4618 476.4618 0 0 0 104.88086 758.39062 L 116.60156 750.45508 A 462.205 462.205 0 0 1 50.654297 536.24414 L 36.751953 536.24414 z M 972.99219 536.24414 A 462.205 462.205 0 0 1 889.56641 778.12109 L 900.54102 786.75391 A 476.4618 476.4618 0 0 0 987.60156 536.24414 L 972.99219 536.24414 z "
       transform="matrix(0.26458333,0,0,0.26458333,0,26.06665)"
       id="path6003" />
    <path
       style="fill:none;fill-opacity:0.39215687;stroke:#fafafa;stroke-width:2.00000003;stroke-linejoin:round;stroke-miterlimit:4;stroke-dasharray:none;stroke-opacity:1"
       d="M 324.89062 368.28516 A 236.34014 236.34014 0 0 0 291.26172 428.44727 L 303.67188 432.13867 A 223.54195 223.54195 0 0 1 341.66992 368.28516 L 324.89062 368.28516 z M 682.62891 368.28516 A 223.54195 223.54195 0 0 1 733.98242 488.16406 L 747.09766 488.16406 A 236.34014 236.34014 0 0 0 698.99023 368.28516 L 682.62891 368.28516 z M 281.70508 461.375 A 236.34014 236.34014 0 0 0 277.12305 488.16406 L 289.83398 488.16406 A 223.54195 223.54195 0 0 1 293.6582 464.93164 L 281.70508 461.375 z M 276.90234 535.83594 A 236.34014 236.34014 0 0 0 428.44727 732.73828 L 432.13281 720.34766 A 223.54195 223.54195 0 0 1 290.01758 535.83594 L 276.90234 535.83594 z M 734.16602 535.83594 A 223.54195 223.54195 0 0 1 730.3418 559.06836 L 742.29492 562.625 A 236.34014 236.34014 0 0 0 746.87695 535.83594 L 734.16602 535.83594 z M 720.32812 591.86133 A 223.54195 223.54195 0 0 1 535.83594 734.00586 L 535.83594 747.12109 A 236.34014 236.34014 0 0 0 732.73828 595.55273 L 720.32812 591.86133 z M 464.92383 730.36523 L 461.375 742.29883 A 236.34014 236.34014 0 0 0 488.16406 746.88281 L 488.16406 734.19336 A 223.54195 223.54195 0 0 1 464.92383 730.36523 z "
       transform="matrix(0.26458333,0,0,0.26458333,0,26.06665)"
       id="path6178" />
    <path
       style="fill:none;fill-opacity:0.50196081;stroke:#fafafa;stroke-width:2.00000003;stroke-linejoin:round;stroke-miterlimit:4;stroke-dasharray:none;stroke-opacity:1"
       d="M 512 447.35742 A 64.64286 64.64286 0 0 0 474.70508 459.29883 L 482.15234 466.74609 A 54.285708 54.285708 0 0 1 512 457.71484 A 54.285708 54.285708 0 0 1 541.83008 466.76367 L 549.28125 459.3125 A 64.64286 64.64286 0 0 0 512 447.35742 z M 564.70117 474.70508 L 557.25391 482.15234 A 54.285708 54.285708 0 0 1 566.28516 512 A 54.285708 54.285708 0 0 1 557.23633 541.83008 L 564.6875 549.28125 A 64.64286 64.64286 0 0 0 576.64258 512 A 64.64286 64.64286 0 0 0 564.70117 474.70508 z M 459.3125 474.71875 A 64.64286 64.64286 0 0 0 447.35742 512 A 64.64286 64.64286 0 0 0 459.29883 549.29492 L 466.74609 541.84766 A 54.285708 54.285708 0 0 1 457.71484 512 A 54.285708 54.285708 0 0 1 466.76367 482.16992 L 459.3125 474.71875 z M 482.16992 557.23633 L 474.71875 564.6875 A 64.64286 64.64286 0 0 0 512 576.64258 A 64.64286 64.64286 0 0 0 549.29492 564.70117 L 541.84766 557.25391 A 54.285708 54.285708 0 0 1 512 566.28516 A 54.285708 54.285708 0 0 1 482.16992 557.23633 z "
       transform="matrix(0.26458333,0,0,0.26458333,0,26.06665)"
       id="path6237" />
    <path
       style="fill:none;fill-opacity:0.50196081;stroke:#ffffff;stroke-width:2.00000003;stroke-linejoin:round;stroke-miterlimit:4;stroke-dasharray:none;stroke-opacity:1"
       d="M 561.7207 455.71289 L 540.04102 477.39258 A 44.574979 44.574979 0 0 1 546.61719 483.94922 L 568.26758 462.29883 A 75.168622 75.168622 0 0 0 561.7207 455.71289 z M 462.29883 455.73242 A 75.168622 75.168622 0 0 0 455.71289 462.2793 L 477.39258 483.95898 A 44.574979 44.574979 0 0 1 483.94922 477.38281 L 462.29883 455.73242 z M 546.60742 540.04102 A 44.574979 44.574979 0 0 1 540.05078 546.61719 L 561.70117 568.26758 A 75.168622 75.168622 0 0 0 568.28711 561.7207 L 546.60742 540.04102 z M 477.38281 540.05078 L 455.73242 561.70117 A 75.168622 75.168622 0 0 0 462.2793 568.28711 L 483.95898 546.60742 A 44.574979 44.574979 0 0 1 477.38281 540.05078 z "
       transform="matrix(0.26458333,0,0,0.26458333,0,26.06665)"
       id="rect6325" />
  </g>
</svg>
